<?xml version="1.0" standalone="no"?><!DOCTYPE svg PUBLIC "-//W3C//DTD SVG 1.1//EN" "http://www.w3.org/Graphics/SVG/1.1/DTD/svg11.dtd"><svg t="1575514756882" class="icon" viewBox="0 0 1024 1024" version="1.1" xmlns="http://www.w3.org/2000/svg" p-id="2786" xmlns:xlink="http://www.w3.org/1999/xlink" width="200" height="200"><defs><style type="text/css"></style></defs><path d="M1020.987688 650.926213c1.48152 8.808313 1.104406 19.421386-1.077469 31.893095a192.193608 192.193608 0 0 1-10.990189 37.926924 164.314087 164.314087 0 0 1-18.667157 34.640642c-7.299855 10.235959-15.353939 17.589688-24.135315 21.980376-8.781376 4.390688-16.485282 6.5995-23.057846 6.5995-6.5995 0-13.899356-1.454584-21.953439-4.390688a228.073339 228.073339 0 0 0-27.47547-6.060765 127.680126 127.680126 0 0 0-33.455426-1.07747c-11.340366 1.077469-22.680731 3.474839-34.048034 7.138235a66.533737 66.533737 0 0 0-29.091674 18.694095c-17.562752 18.31698-27.798711 39.19295-30.707878 62.654846-2.963041 23.43496 0.350178 45.79245 9.858845 67.072472 7.326792 14.653584 6.222386 29.307168-3.286282 43.987689-4.390688 5.845272-11.340366 11.906037-20.849033 18.128423-9.535604 6.222386-19.933184 11.906037-31.300487 17.050953a194.752598 194.752598 0 0 1-35.664238 12.094595c-12.444772 2.936104-23.43496 4.390688-32.943627 4.390687-6.5995 0-12.821886-2.55899-18.667158-7.703906a41.644193 41.644193 0 0 1-12.067657-16.485282h-1.07747c-8.081021-22.707668-21.818756-42.317611-41.213205-58.82983A101.093568 101.093568 0 0 0 511.640956 915.90288c-24.862607 0-47.381718 8.242641-67.503459 24.727924-20.121741 16.512219-34.209654 35.745048-42.263738 57.725424-3.663396 8.808313-9.15849 15.219256-16.458345 19.259766-7.326792 4.04051-15.353939 6.033829-24.162252 6.033828-10.235959 0-21.764882-1.831698-34.586768-5.495094-12.794949-3.663396-25.589899-8.242641-38.411785-13.737735a183.789346 183.789346 0 0 1-34.586768-19.259766c-10.235959-7.326792-17.912929-14.653584-23.057846-21.980376a33.563172 33.563172 0 0 1-6.033829-18.128423c-0.350178-6.976614 2.397369-16.700776 8.242641-29.145548 8.054084-16.862396 11.151808-36.095226 9.320111-57.725424-1.831698-21.630199-11.151808-41.59032-27.987268-59.907299a71.382349 71.382349 0 0 0-37.334316-21.441642 151.357517 151.357517 0 0 0-41.698066-3.851953 184.139524 184.139524 0 0 0-47.220098 8.781376c-10.235959 2.963041-20.471919 2.208812-30.707878-2.181876-8.081021-2.963041-15.569433-9.697225-22.519111-20.337235a227.857846 227.857846 0 0 1-31.300487-74.776378c-2.909167-13.549178-3.663396-24.727923-2.181875-33.536236 2.181876-16.108168 9.508668-26.398001 21.953439-30.788688 21.953439-8.781376 41.698067-23.273339 59.260818-43.422018 17.589688-20.148678 26.371064-42.694726 26.371064-67.611206 0-25.643772-8.781376-48.001263-26.344127-67.072471-17.589688-19.044272-37.334315-32.970564-59.287755-41.75194-6.5995-2.208812-12.067658-7.542286-16.458345-15.973485A55.328055 55.328055 0 0 1 0.058476 358.474076c0-9.535604 1.454584-20.148678 4.390688-31.893095 2.936104-11.71748 6.761121-23.084782 11.528922-34.07497 4.767802-10.990188 10.235959-21.064527 16.458346-30.223017 6.222386-9.15849 13.010443-15.946547 20.310298-20.337236 5.872208-3.663396 11.528923-5.11798 17.024017-4.417624 5.495094 0.754229 11.528923 2.208812 18.101487 4.417624a132.501802 132.501802 0 0 0 68.607865 8.242641c23.785137-3.313218 44.849665-13.737735 63.139708-31.35436 8.781376-8.781376 15.192319-19.583007 19.205892-32.431829 4.04051-12.821886 6.5995-25.455215 7.67697-37.926924 1.104406-12.444772 1.104406-23.812074 0-34.07497-1.077469-10.262896-1.993318-17.589688-2.747547-21.980377a117.821281 117.821281 0 0 1-3.825017-15.407812 23.865948 23.865948 0 0 1 1.616205-15.380876c4.417625-10.262896 12.283151-19.259766 23.623517-26.936736A184.543575 184.543575 0 0 1 301.938471 15.407813c13.199-5.11798 25.99395-8.969933 38.438721-11.528923 12.444772-2.55899 22.303617-3.851953 29.630409-3.851953 9.508668 0 17.024017 3.124661 22.519111 9.347047 5.468157 6.222386 9.32011 12.660266 11.528923 19.232829 8.027147 19.798501 21.199211 37.199632 39.516191 52.23033 18.290043 15.030698 39.866369 22.546048 64.755912 22.546048 25.616835 0 48.297567-7.165172 68.069131-21.441642a114.750493 114.750493 0 0 0 41.725003-54.412205c2.909167-5.872208 7.488412-11.932974 13.710798-18.15536 6.195449-6.222386 12.633329-9.347047 19.205893-9.347047 10.235959 0 21.414705 1.454584 33.482362 4.390688 12.067658 2.963041 23.973695 6.976614 35.691174 12.121531 11.690543 5.11798 22.492174 11.71748 32.377956 19.771563 9.885782 8.081021 17.751309 16.862396 23.596581 26.398001a25.239721 25.239721 0 0 1 3.286281 19.232829 67.611206 67.611206 0 0 1-4.390687 14.815205 116.743812 116.743812 0 0 0-8.781376 67.072471c3.663396 23.461897 14.27647 43.987689 31.839221 61.577378 17.562752 17.589688 39.166013 27.31385 64.782849 29.145547 25.589899 1.831698 49.401973-2.370433 71.355412-12.660265 5.845272-3.636459 12.983507-5.11798 21.387768-4.390688 8.431198 0.754229 15.569433 4.04051 21.414705 9.912719 10.990188 10.235959 20.687413 25.832329 29.091674 46.708299 8.431198 20.902907 14.087913 41.967434 17.024017 63.220518 1.454584 12.471709-0.538735 22.168933-6.033828 29.145548-5.495094 6.949678-11.178745 11.55586-17.024017 13.737735-22.680731 8.081021-42.075181 22.168933-58.183349 42.344548a107.127397 107.127397 0 0 0-24.162252 68.688676c0 24.943417 6.788057 46.735236 20.310299 65.456267a111.868263 111.868263 0 0 0 53.253926 40.108799c5.11798 2.936104 9.508668 5.872208 13.172064 8.781376 8.054084 6.5995 13.549178 15.030698 16.458345 25.320531z m-510.451138 98.965567a235.750309 235.750309 0 0 0 93.308852-18.694095 234.295725 234.295725 0 0 0 76.284835-51.691595 247.440852 247.440852 0 0 0 51.045114-76.392582 232.787268 232.787268 0 0 0 18.667157-92.931738c0-32.970564-6.195449-63.920873-18.667157-92.877864a240.760542 240.760542 0 0 0-51.045114-75.880784 238.686413 238.686413 0 0 0-76.284835-51.098987 235.750309 235.750309 0 0 0-93.308852-18.694094c-32.943628 0-63.840063 6.195449-92.770117 18.694094a240.329554 240.329554 0 0 0-75.7461 51.098987A240.760542 240.760542 0 0 0 290.975219 417.303906a232.787268 232.787268 0 0 0-18.667158 92.904801c0 32.970564 6.222386 63.94781 18.667158 92.904801a247.440852 247.440852 0 0 0 51.045114 76.392582 235.884993 235.884993 0 0 0 75.7461 51.691595 231.817546 231.817546 0 0 0 92.770117 18.694095z" p-id="2787"></path></svg>